<svg width="23" height="23" viewBox="0 0 23 23" fill="none" xmlns="http://www.w3.org/2000/svg">
<path d="M12.3529 5.63501H4.89703C3.25828 5.63501 1.91663 6.97666 1.91663 8.61541V19.5021C1.91663 20.8917 2.91329 21.4858 4.13037 20.8054L7.89662 18.7067C8.29912 18.4862 8.95079 18.4862 9.34371 18.7067L13.11 20.8054C14.327 21.4858 15.3237 20.8917 15.3237 19.5021V8.61541C15.3333 6.97666 13.9916 5.63501 12.3529 5.63501Z" stroke="#FFCA0D" stroke-width="1.5" stroke-linecap="round" stroke-linejoin="round"/>
<path d="M15.3333 8.61541V19.5021C15.3333 20.8917 14.3366 21.4762 13.1195 20.8054L9.3533 18.7067C8.9508 18.4862 8.29912 18.4862 7.89662 18.7067L4.13037 20.8054C2.91329 21.4762 1.91663 20.8917 1.91663 19.5021V8.61541C1.91663 6.97666 3.25828 5.63501 4.89703 5.63501H12.3529C13.9916 5.63501 15.3333 6.97666 15.3333 8.61541Z" stroke="#FFCA0D" stroke-width="1.5" stroke-linecap="round" stroke-linejoin="round"/>
<path d="M21.0833 4.89715V15.7838C21.0833 17.1734 20.0866 17.758 18.8695 17.0872L15.3333 15.113V8.61549C15.3333 6.97674 13.9916 5.63509 12.3529 5.63509H7.66663V4.89715C7.66663 3.2584 9.00828 1.91675 10.647 1.91675H18.1029C19.7416 1.91675 21.0833 3.2584 21.0833 4.89715Z" stroke="#FFCA0D" stroke-width="1.5" stroke-linecap="round" stroke-linejoin="round"/>
</svg>
