<svg width="16" height="16" viewBox="0 0 16 16" fill="none" xmlns="http://www.w3.org/2000/svg">
<path d="M8 0.5C3.86 0.5 0.5 3.86 0.5 8C0.5 12.14 3.86 15.5 8 15.5C12.14 15.5 15.5 12.14 15.5 8C15.5 3.86 12.14 0.5 8 0.5ZM10.6475 8.0225C10.535 8.135 10.3925 8.1875 10.25 8.1875C10.1075 8.1875 9.965 8.135 9.8525 8.0225L8.5625 6.7325V10.625C8.5625 10.9325 8.3075 11.1875 8 11.1875C7.6925 11.1875 7.4375 10.9325 7.4375 10.625V6.7325L6.1475 8.0225C5.93 8.24 5.57 8.24 5.3525 8.0225C5.135 7.805 5.135 7.445 5.3525 7.2275L7.6025 4.9775C7.82 4.76 8.18 4.76 8.3975 4.9775L10.6475 7.2275C10.865 7.445 10.865 7.805 10.6475 8.0225Z" fill="#FFD70C"/>
<path d="M10.6475 8.0225C10.535 8.135 10.3925 8.1875 10.25 8.1875C10.1075 8.1875 9.965 8.135 9.8525 8.0225L8.5625 6.7325V10.625C8.5625 10.9325 8.3075 11.1875 8 11.1875C7.6925 11.1875 7.4375 10.9325 7.4375 10.625V6.7325L6.1475 8.0225C5.93 8.24 5.57 8.24 5.3525 8.0225C5.135 7.805 5.135 7.445 5.3525 7.2275L7.6025 4.9775C7.82 4.76 8.18 4.76 8.3975 4.9775L10.6475 7.2275C10.865 7.445 10.865 7.805 10.6475 8.0225Z" fill="#FFD70C"/>
<path d="M10.6475 8.0225C10.535 8.135 10.3925 8.1875 10.25 8.1875C10.1075 8.1875 9.965 8.135 9.8525 8.0225L8.5625 6.7325V10.625C8.5625 10.9325 8.3075 11.1875 8 11.1875C7.6925 11.1875 7.4375 10.9325 7.4375 10.625V6.7325L6.1475 8.0225C5.93 8.24 5.57 8.24 5.3525 8.0225C5.135 7.805 5.135 7.445 5.3525 7.2275L7.6025 4.9775C7.82 4.76 8.18 4.76 8.3975 4.9775L10.6475 7.2275C10.865 7.445 10.865 7.805 10.6475 8.0225Z" fill="#171716"/>
</svg>
