<svg width="16" height="16" viewBox="0 0 16 16" fill="none" xmlns="http://www.w3.org/2000/svg">
<path d="M5 2.99992H4.83333V1.33325C4.83333 1.05992 4.60667 0.833252 4.33333 0.833252C4.06 0.833252 3.83333 1.05992 3.83333 1.33325V2.99992H3.66667C2.60667 2.99992 2 3.60659 2 4.66659V8.66659C2 9.72659 2.60667 10.3333 3.66667 10.3333H3.83333V14.6666C3.83333 14.9399 4.06 15.1666 4.33333 15.1666C4.60667 15.1666 4.83333 14.9399 4.83333 14.6666V10.3333H5C6.06 10.3333 6.66667 9.72659 6.66667 8.66659V4.66659C6.66667 3.60659 6.06 2.99992 5 2.99992Z" fill="#FFD70A"/>
<path d="M12.3333 5.66659H12.1666V1.33325C12.1666 1.05992 11.94 0.833252 11.6666 0.833252C11.3933 0.833252 11.1666 1.05992 11.1666 1.33325V5.66659H11C9.93998 5.66659 9.33331 6.27325 9.33331 7.33325V11.3333C9.33331 12.3933 9.93998 12.9999 11 12.9999H11.1666V14.6666C11.1666 14.9399 11.3933 15.1666 11.6666 15.1666C11.94 15.1666 12.1666 14.9399 12.1666 14.6666V12.9999H12.3333C13.3933 12.9999 14 12.3933 14 11.3333V7.33325C14 6.27325 13.3933 5.66659 12.3333 5.66659Z" fill="#FFD70A"/>
</svg>
