<svg width="35" height="35" viewBox="0 0 35 35" fill="none" xmlns="http://www.w3.org/2000/svg">
<circle cx="17.5" cy="17.5" r="17.5" fill="#FFD70A"/>
<path d="M13.7316 9.58334H12.2275C10.4937 9.58334 9.58331 10.4938 9.58331 12.2196V13.7238C9.58331 15.4496 10.4937 16.36 12.2196 16.36H13.7237C15.4496 16.36 16.36 15.4496 16.36 13.7238V12.2196C16.3679 10.4938 15.4575 9.58334 13.7316 9.58334Z" fill="white"/>
<path d="M22.7804 9.58334H21.2763C19.5504 9.58334 18.64 10.4938 18.64 12.2196V13.7238C18.64 15.4496 19.5504 16.36 21.2763 16.36H22.7804C24.5063 16.36 25.4167 15.4496 25.4167 13.7238V12.2196C25.4167 10.4938 24.5063 9.58334 22.7804 9.58334Z" fill="white"/>
<path d="M22.7804 18.6321H21.2763C19.5504 18.6321 18.64 19.5425 18.64 21.2683V22.7725C18.64 24.4983 19.5504 25.4087 21.2763 25.4087H22.7804C24.5063 25.4087 25.4167 24.4983 25.4167 22.7725V21.2683C25.4167 19.5425 24.5063 18.6321 22.7804 18.6321Z" fill="white"/>
<path d="M13.7316 18.6321H12.2275C10.4937 18.6321 9.58331 19.5425 9.58331 21.2683V22.7725C9.58331 24.5062 10.4937 25.4167 12.2196 25.4167H13.7237C15.4496 25.4167 16.36 24.5062 16.36 22.7804V21.2762C16.3679 19.5425 15.4575 18.6321 13.7316 18.6321Z" fill="white"/>
</svg>
