<svg width="23" height="23" viewBox="0 0 23 23" fill="none" xmlns="http://www.w3.org/2000/svg">
<path d="M8.92209 14.0875L10.3596 15.525L14.1929 11.6917" stroke="#FFCA0D" stroke-width="1.5" stroke-linecap="round" stroke-linejoin="round"/>
<path d="M9.58332 5.75008H13.4167C15.3333 5.75008 15.3333 4.79175 15.3333 3.83341C15.3333 1.91675 14.375 1.91675 13.4167 1.91675H9.58332C8.62499 1.91675 7.66666 1.91675 7.66666 3.83341C7.66666 5.75008 8.62499 5.75008 9.58332 5.75008Z" stroke="#FFCA0D" stroke-width="1.5" stroke-miterlimit="10" stroke-linecap="round" stroke-linejoin="round"/>
<path d="M15.3333 3.85254C18.5246 4.02504 20.125 5.20379 20.125 9.58337V15.3334C20.125 19.1667 19.1667 21.0834 14.375 21.0834H8.625C3.83333 21.0834 2.875 19.1667 2.875 15.3334V9.58337C2.875 5.21337 4.47542 4.02504 7.66667 3.85254" stroke="#FFCA0D" stroke-width="1.5" stroke-miterlimit="10" stroke-linecap="round" stroke-linejoin="round"/>
</svg>
