<svg width="14" height="14" viewBox="0 0 14 14" fill="none" xmlns="http://www.w3.org/2000/svg">
<path d="M5.43066 8.57503L6.30566 9.45003L8.639 7.1167" stroke="#FFAD2E" stroke-linecap="round" stroke-linejoin="round"/>
<path d="M5.83317 3.49984H8.1665C9.33317 3.49984 9.33317 2.9165 9.33317 2.33317C9.33317 1.1665 8.74984 1.1665 8.1665 1.1665H5.83317C5.24984 1.1665 4.6665 1.1665 4.6665 2.33317C4.6665 3.49984 5.24984 3.49984 5.83317 3.49984Z" stroke="#FFAD2E" stroke-miterlimit="10" stroke-linecap="round" stroke-linejoin="round"/>
<path d="M9.33333 2.34521C11.2758 2.45021 12.25 3.16771 12.25 5.83355V9.33355C12.25 11.6669 11.6667 12.8335 8.75 12.8335H5.25C2.33333 12.8335 1.75 11.6669 1.75 9.33355V5.83355C1.75 3.17355 2.72417 2.45021 4.66667 2.34521" stroke="#FFAD2E" stroke-miterlimit="10" stroke-linecap="round" stroke-linejoin="round"/>
</svg>
