<svg width="512" height="512" viewBox="0 0 512 512" fill="none" xmlns="http://www.w3.org/2000/svg">
<path d="M101.26 57.28C145.25 22.65 201.05 3.39999 257.06 3.71999C298.98 3.69999 340.92 14.14 377.72 34.3C404.65 48.92 428.75 68.64 448.67 91.91C462.66 80.83 476.63 69.72 490.65 58.67C495.15 55.01 502.32 55.47 506.28 59.73C510.56 63.89 510.79 71.33 506.75 75.74C491.67 92.49 476.44 109.11 461.34 125.85C445.74 142.96 430.23 160.15 414.63 177.26C366.07 230.84 317.45 284.36 268.84 337.9C266.27 340.63 263.92 343.97 260.17 345.13C255.25 346.94 249.43 344.8 246.57 340.48C216.11 297.25 185.65 254.01 155.19 210.77C153.29 208.18 151.21 205.44 151.01 202.1C150.45 197.12 153.51 192.05 158.13 190.14C161.6 188.62 165.77 188.98 168.99 190.97C197.94 208.83 226.72 227.01 255.74 244.75C296.86 212.15 337.98 179.56 379.13 146.99C358.02 123.19 329.77 105.83 298.98 97.81C267.42 89.45 233.37 90.71 202.56 101.51C170.31 112.72 141.88 134.35 122.23 162.25C102.16 190.54 91.53 225.36 92.34 260.03C92.87 289.51 101.58 318.79 117.3 343.73C134.45 371.23 159.92 393.45 189.51 406.7C214.92 418.18 243.3 422.91 271.07 420.46C316.09 416.77 358.91 393.22 386.44 357.46C409.53 327.98 421.96 290.43 420.99 253C421.02 248.29 420.32 243.61 420.31 238.9C420.48 233.32 425.14 228.52 430.63 227.8C435.24 227.31 440.03 229.65 442.3 233.74C444.03 236.53 443.88 239.93 444.17 243.08C446.12 270.27 442.17 297.9 432.44 323.38C418.25 360.81 391.77 393.46 358 414.98C324.49 436.74 283.83 447.07 243.99 444.27C219.11 442.63 194.58 435.91 172.33 424.67C144.39 410.64 120.08 389.48 102.26 363.8C83.22 336.57 71.67 304.16 69.23 271.01C66.57 236.75 73.52 201.8 89.26 171.24C105.49 139.54 130.89 112.62 161.6 94.59C184.25 81.26 209.74 72.75 235.87 69.88C271.11 65.95 307.47 72.04 339.33 87.68C361.38 98.37 381.14 113.6 397.43 131.89L398 131.96C408.78 123.61 419.41 115.06 430.11 106.59C405.58 78.03 373.88 55.63 338.66 42.29C286.58 22.38 227.18 22.37 175.14 42.39C125.77 61.08 83.35 97.48 57.36 143.43C28.97 192.58 20.3 252.57 33.11 307.82C43.64 354.63 69.61 397.73 105.77 429.22C137.55 457.17 177.23 476.11 219.02 482.92C266.29 490.95 316.08 483.54 358.91 461.98C391.85 445.59 420.65 421.06 442.26 391.3C467.54 356.67 482.78 314.79 485.49 271.99C487.44 244.04 484.11 215.73 475.85 188.97C474.67 184.8 472.43 180.57 473.5 176.13C474.4 171.8 477.96 168.43 482.14 167.24C487.85 165.8 494.22 169.19 496.08 174.8C510.5 216.77 513.48 262.58 504.83 306.11C497.04 345.57 479.51 383.03 454.34 414.38C431.11 443.51 401.4 467.47 367.94 483.87C327.3 504.06 281.08 512.6 235.89 508.86C191.61 505.32 148.41 489.67 112.07 464.14C82.22 443.32 56.94 415.98 38.5 384.61C19.62 352.78 8.05998 316.68 4.72998 279.83C0.619983 235.41 8.45998 189.91 27.51 149.55C44.43 113.59 69.9 81.69 101.26 57.28ZM263.56 268.63C259.92 271.46 254.58 271.81 250.6 269.5C235.74 260.44 221.15 250.89 206.15 242.1C223.24 266.38 240.43 290.6 257.42 314.96C258.1 314.49 258.72 313.95 259.27 313.32C294.28 274.67 329.37 236.09 364.39 197.45C373.24 187.53 382.43 177.88 391.09 167.81C348.42 201.2 306.17 235.15 263.56 268.63Z" fill="#444C57"/>
<path d="M175.14 42.39C227.18 22.37 286.58 22.38 338.66 42.29C373.88 55.63 405.58 78.03 430.11 106.59C419.41 115.06 408.78 123.61 398 131.96L397.43 131.89C381.14 113.6 361.38 98.37 339.33 87.68C307.47 72.04 271.11 65.95 235.87 69.88C209.74 72.75 184.25 81.26 161.6 94.59C130.89 112.62 105.49 139.54 89.2602 171.24C73.5202 201.8 66.5702 236.75 69.2302 271.01C71.6702 304.16 83.2202 336.57 102.26 363.8C120.08 389.48 144.39 410.64 172.33 424.67C194.58 435.91 219.11 442.63 243.99 444.27C283.83 447.07 324.49 436.74 358 414.98C391.77 393.46 418.25 360.81 432.44 323.38C442.17 297.9 446.12 270.27 444.17 243.08C443.88 239.93 444.03 236.53 442.3 233.74C440.03 229.65 435.24 227.31 430.63 227.8C428.94 214.45 425.05 201.45 420.21 188.91C418.48 184.97 417.13 180.8 414.63 177.26C430.23 160.15 445.74 142.96 461.34 125.85C469.56 138.94 476.63 152.79 482.14 167.24C477.96 168.43 474.4 171.8 473.5 176.13C472.43 180.57 474.67 184.8 475.85 188.97C484.11 215.73 487.44 244.04 485.49 271.99C482.78 314.79 467.54 356.67 442.26 391.3C420.65 421.06 391.85 445.59 358.91 461.98C316.08 483.54 266.29 490.95 219.02 482.92C177.23 476.11 137.55 457.17 105.77 429.22C69.6102 397.73 43.6402 354.63 33.1102 307.82C20.3002 252.57 28.9702 192.58 57.3602 143.43C83.3502 97.48 125.77 61.08 175.14 42.39Z" fill="#98BED8"/>
<path d="M202.56 101.51C233.37 90.71 267.42 89.45 298.98 97.81C329.77 105.83 358.02 123.19 379.13 146.99C337.98 179.56 296.86 212.15 255.74 244.75C226.72 227.01 197.94 208.83 168.99 190.97C165.77 188.98 161.6 188.62 158.13 190.14C153.51 192.05 150.45 197.12 151.01 202.1C151.21 205.44 153.29 208.18 155.19 210.77C185.65 254.01 216.11 297.25 246.57 340.48C249.43 344.8 255.25 346.94 260.17 345.13C263.92 343.97 266.27 340.63 268.84 337.9C317.45 284.36 366.07 230.84 414.63 177.26C417.13 180.8 418.48 184.97 420.21 188.91C425.05 201.45 428.94 214.45 430.63 227.8C425.14 228.52 420.48 233.32 420.31 238.9C420.32 243.61 421.02 248.29 420.99 253C421.96 290.43 409.53 327.98 386.44 357.46C358.91 393.22 316.09 416.77 271.07 420.46C243.3 422.91 214.92 418.18 189.51 406.7C159.92 393.45 134.45 371.23 117.3 343.73C101.58 318.79 92.87 289.51 92.34 260.03C91.53 225.36 102.16 190.54 122.23 162.25C141.88 134.35 170.31 112.72 202.56 101.51Z" fill="#DEF1F7"/>
<path d="M263.56 268.63C306.17 235.15 348.42 201.2 391.09 167.81C382.43 177.88 373.24 187.53 364.39 197.45C329.37 236.09 294.28 274.67 259.27 313.32C258.72 313.95 258.1 314.49 257.42 314.96C240.43 290.6 223.24 266.38 206.15 242.1C221.15 250.89 235.74 260.44 250.6 269.5C254.58 271.81 259.92 271.46 263.56 268.63Z" fill="#F17579"/>
</svg>
