<svg width="23" height="23" viewBox="0 0 23 23" fill="none" xmlns="http://www.w3.org/2000/svg">
<path d="M16.0042 18.1892H6.99583C6.59333 18.1892 6.14292 17.873 6.00875 17.4896L2.04125 6.39214C1.47583 4.8013 2.13708 4.31255 3.49792 5.29005L7.23542 7.9638C7.85833 8.39505 8.5675 8.17464 8.83583 7.47505L10.5225 2.98047C11.0592 1.54297 11.9504 1.54297 12.4871 2.98047L14.1737 7.47505C14.4421 8.17464 15.1513 8.39505 15.7646 7.9638L19.2721 5.46255C20.7671 4.38922 21.4858 4.93547 20.8725 6.67005L17.0008 17.5088C16.8571 17.873 16.4067 18.1892 16.0042 18.1892Z" stroke="#BDBDBD" stroke-width="1.5" stroke-linecap="round" stroke-linejoin="round"/>
<path d="M6.22916 21.0833H16.7708" stroke="#BDBDBD" stroke-width="1.5" stroke-linecap="round" stroke-linejoin="round"/>
<path d="M9.10416 13.4167H13.8958" stroke="#BDBDBD" stroke-width="1.5" stroke-linecap="round" stroke-linejoin="round"/>
</svg>
