<svg width="512" height="512" viewBox="0 0 512 512" fill="none" xmlns="http://www.w3.org/2000/svg">
<path d="M175.98 12.9C189.69 6.59004 205.81 7.29004 219.86 12.1C233.85 16.87 245.76 26.76 253.89 38.99C271.26 39.21 288.67 38.95 306.05 39.12C312.16 39.29 317.37 44.89 317.18 50.99C317.23 62.31 317.19 73.62 317.2 84.93C342.08 85.43 367.1 84.96 392.03 85.16C398.32 85.06 403.92 90.63 403.82 96.92C403.84 127.29 403.86 157.67 403.82 188.04C403.82 193.9 398.92 199.25 393.05 199.6C386.49 200.38 380.23 194.68 380.28 188.1C380.17 161.65 380.36 135.19 380.18 108.74C359.39 108.67 338.59 108.84 317.8 108.66L317.18 109.13C317.24 120.41 317.17 131.7 317.2 142.99C317.31 149.42 311.53 155.05 305.12 154.85C236.71 154.87 168.3 154.88 99.9001 154.85C93.5401 155 87.7801 149.41 87.9501 143.01C87.9101 131.61 87.9201 120.21 87.9501 108.82C67.5001 108.6 47.0301 108.82 26.5801 108.71C26.2601 233.83 26.6101 359 26.4001 484.15L26.7301 484.86C134.17 484.69 241.62 484.9 349.06 484.75C361.82 484.65 373.93 476.06 378.22 464.05C380.89 457.37 380.14 450.07 380.25 443.06C380.3 430.69 380.13 418.32 380.33 405.96C380.64 398.81 388.46 393.41 395.26 395.62C400.24 396.92 403.85 401.82 403.82 406.94C403.85 422.29 403.84 437.64 403.82 452.99C403.79 466.67 398.57 480.28 389.27 490.33C378.91 501.87 363.49 508.43 348.03 508.38C237.03 508.41 126.03 508.41 15.0301 508.38C8.76012 508.63 3.03012 503.28 2.89012 497.01C2.85012 363.67 2.89012 230.33 2.87012 96.99C2.88012 92.64 5.43012 88.38 9.35012 86.46C12.0001 85.05 15.0801 85.09 17.9901 85.13C41.3001 85.11 64.6201 85.19 87.9301 85.09C87.9301 73.74 87.9401 62.39 87.9301 51.03C87.7701 44.96 92.8601 39.35 98.9601 39.12C116.3 38.99 133.64 39.13 150.98 39.05C156.83 28.4 164.67 18.11 175.98 12.9ZM183.59 35.57C176.35 40.66 172.59 48.99 168.5 56.54C166.46 60.27 162.3 62.7 158.05 62.66C142.59 62.72 127.12 62.57 111.66 62.74C111.48 85.54 111.35 108.44 111.73 131.21C171.87 131.36 232.02 131.19 292.16 131.29C292.54 131.15 293.29 130.86 293.67 130.71C293.53 108.21 293.61 85.7 293.63 63.19L293.05 62.75C277.67 62.53 262.27 62.77 246.88 62.64C242.37 62.66 238.09 59.86 236.22 55.78C230.63 44.64 220.13 35.97 207.93 33.17C199.93 31.39 190.75 30.95 183.59 35.57Z" fill="#454B53"/>
<path d="M436.49 179.36C441.4 174.48 449.99 175.46 454.18 180.8C471.83 198.5 489.581 216.1 507.171 233.86C511.28 238.46 510.75 246.09 506.22 250.22C455.57 300.89 404.9 351.53 354.24 402.2C351.9 404.51 349.89 407.37 346.72 408.6C333.75 412.85 320.97 417.67 308.06 422.1C307.68 422.36 306.91 422.89 306.53 423.16H306.51C306.15 423.15 305.42 423.15 305.05 423.15C290.7 428.24 276.36 433.38 261.95 438.31C253.82 440.54 245.38 432.11 247.87 423.97C257.69 395.49 268 367.15 277.83 338.69C279.17 335.6 282.15 333.78 284.38 331.41C301.11 314.62 317.95 297.94 334.62 281.09C334.48 280.6 334.2 279.63 334.06 279.14C334.29 279.54 334.74 280.33 334.97 280.73C368.9 247.04 402.59 213.09 436.49 179.36ZM441.05 208.13C395.91 253.4 350.47 298.43 305.53 343.85C317.7 356.1 329.95 368.26 342.13 380.49C345.73 377.91 348.66 374.1 352 371.05C394.51 328.56 436.99 286.05 479.5 243.57C480.33 242.87 481.83 241.49 480.5 240.47C468.67 228.63 456.84 216.8 445 204.98C443.22 205.06 442.4 207.17 441.05 208.13ZM293.2 366.03C288.57 379.82 283.36 393.43 278.85 407.25C292.77 402.75 306.46 397.38 320.39 392.85C320.06 392.39 319.4 391.48 319.07 391.02C311.38 383.33 303.69 375.64 296 367.95C295.14 367.23 294.52 365.87 293.2 366.03Z" fill="#454B53"/>
<path d="M65.8097 234.81C67.8597 232.56 70.8597 231.27 73.8797 231.16C83.7197 231.07 93.5697 231.22 103.41 231.08C169.99 231.16 236.57 231.18 303.15 231.07C313.14 231.25 323.13 231.03 333.12 231.18C339.91 231.39 345.36 238.36 343.94 245.01C343.11 249.92 338.87 254.01 333.91 254.57C329.92 254.93 325.91 254.6 321.92 254.77C242.88 254.71 163.84 254.72 84.7997 254.76C78.8697 254.26 72.0397 256.18 66.9797 252.11C61.7097 248.06 61.0697 239.5 65.8097 234.81Z" fill="#454B53"/>
<path d="M63.2001 323.09C65.0801 318.43 69.8501 315.16 74.9101 315.41C132.95 315.39 190.98 315.4 249.01 315.4C252.09 315.34 255.25 316.3 257.54 318.43C261.64 321.91 262.65 328.34 259.96 332.97C257.86 336.87 253.47 339.16 249.09 339C191.04 339.01 132.99 339.01 74.9301 339C70.2601 339.27 66.1501 336.38 63.6001 332.67C62.4301 329.72 62.2701 326.19 63.2001 323.09Z" fill="#454B53"/>
<path d="M65.1701 404.15C69.3801 398.52 76.9401 399.85 83.0501 399.72C95.6901 399.77 108.34 399.69 120.98 399.76C126.85 399.94 132.07 405.09 132.18 411C132.57 416.9 127.85 422.56 121.96 423.18C114.77 423.64 107.55 423.05 100.37 423.45C90.9001 423.01 81.3701 423.77 71.9201 423.05C63.6101 421.64 59.5801 410.51 65.1701 404.15Z" fill="#454B53"/>
<path d="M159.4 400.5C160.89 399.93 162.48 399.7 164.07 399.74C181.01 399.74 197.96 399.69 214.9 399.76C220.58 399.74 225.75 404.44 226.31 410.08C227.42 416.73 221.64 423.31 214.95 423.32C197.63 423.32 180.32 423.39 163.01 423.28C157.44 423.17 152.45 418.53 151.88 413.01C151.05 407.74 154.41 402.27 159.4 400.5Z" fill="#454B53"/>
<path d="M183.59 35.5699C190.75 30.9499 199.93 31.3899 207.93 33.1699C220.13 35.9699 230.63 44.6399 236.22 55.7799C238.09 59.8599 242.37 62.6599 246.88 62.6399C262.27 62.7699 277.67 62.5299 293.05 62.7499L293.63 63.1899C293.61 85.6999 293.53 108.21 293.67 130.71C293.29 130.86 292.54 131.15 292.16 131.29C232.02 131.19 171.87 131.36 111.73 131.21C111.35 108.44 111.48 85.5399 111.66 62.7399C127.12 62.5699 142.59 62.7199 158.05 62.6599C162.3 62.6999 166.46 60.2699 168.5 56.5399C172.59 48.9899 176.35 40.6599 183.59 35.5699Z" fill="#99BED9"/>
<path d="M157.08 196.83C192.4 184.28 232.79 186.83 266.21 203.83C279.86 210.82 292.69 219.86 303.15 231.07C236.57 231.18 169.99 231.16 103.41 231.08C118.3 215.7 136.86 203.87 157.08 196.83Z" fill="#DFF0F7"/>
<path d="M84.8002 254.76C163.84 254.72 242.88 254.71 321.92 254.77C326.84 262.41 330.84 270.65 334.06 279.14C334.2 279.63 334.48 280.6 334.62 281.09C317.95 297.94 301.11 314.62 284.38 331.41C282.15 333.78 279.17 335.6 277.83 338.69C268 367.15 257.69 395.49 247.87 423.97C245.38 432.11 253.82 440.54 261.95 438.31C276.36 433.38 290.7 428.24 305.05 423.15C305.42 423.15 306.15 423.15 306.51 423.16C293.87 436.76 278.68 448.03 261.77 455.77C227.44 471.71 186.52 472.76 151.44 458.51C132.02 450.92 114.69 438.52 100.37 423.45C107.55 423.05 114.77 423.64 121.96 423.18C127.85 422.56 132.57 416.9 132.18 411C132.07 405.09 126.85 399.94 120.98 399.76C108.34 399.69 95.6902 399.77 83.0502 399.72C70.7802 379.63 64.3302 356.15 63.6002 332.67C66.1502 336.38 70.2602 339.27 74.9302 339C132.99 339.01 191.04 339.01 249.09 339C253.47 339.16 257.86 336.87 259.96 332.97C262.65 328.34 261.64 321.91 257.54 318.43C255.25 316.3 252.09 315.34 249.01 315.4C190.98 315.4 132.95 315.39 74.9102 315.41C69.8502 315.16 65.0802 318.43 63.2002 323.09C63.3502 322.57 63.6502 321.52 63.8002 320.99C65.0402 297.63 72.2202 274.51 84.8002 254.76ZM159.4 400.5C154.41 402.27 151.05 407.74 151.88 413.01C152.45 418.53 157.44 423.17 163.01 423.28C180.32 423.39 197.63 423.32 214.95 423.32C221.64 423.31 227.42 416.73 226.31 410.08C225.75 404.44 220.58 399.74 214.9 399.76C197.96 399.69 181.01 399.74 164.07 399.74C162.48 399.7 160.89 399.93 159.4 400.5Z" fill="#DFF0F7"/>
<path d="M293.201 366.03C294.521 365.87 295.141 367.23 296.001 367.95C303.691 375.64 311.381 383.33 319.071 391.02C319.401 391.48 320.061 392.39 320.391 392.85C306.461 397.38 292.771 402.75 278.851 407.25C283.361 393.43 288.571 379.82 293.201 366.03Z" fill="#DFF0F7"/>
<path d="M441.05 208.13C442.4 207.17 443.22 205.06 445 204.98C456.84 216.8 468.67 228.63 480.5 240.47C481.83 241.49 480.33 242.87 479.5 243.57C436.99 286.05 394.51 328.56 352 371.05C348.66 374.1 345.73 377.91 342.13 380.49C329.95 368.26 317.7 356.1 305.53 343.85C350.47 298.43 395.91 253.4 441.05 208.13Z" fill="#AFDFD3"/>
</svg>
