<svg width="23" height="23" viewBox="0 0 23 23" fill="none" xmlns="http://www.w3.org/2000/svg">
<path d="M20.125 6.70841V16.2917C20.125 19.1667 18.6875 21.0834 15.3333 21.0834H7.66667C4.3125 21.0834 2.875 19.1667 2.875 16.2917V6.70841C2.875 3.83341 4.3125 1.91675 7.66667 1.91675H15.3333C18.6875 1.91675 20.125 3.83341 20.125 6.70841Z" stroke="#FFCA0D" stroke-width="1.5" stroke-miterlimit="10" stroke-linecap="round" stroke-linejoin="round"/>
<path d="M13.8958 4.3125V6.22917C13.8958 7.28333 14.7583 8.14583 15.8125 8.14583H17.7292" stroke="#FFCA0D" stroke-width="1.5" stroke-miterlimit="10" stroke-linecap="round" stroke-linejoin="round"/>
<path d="M7.16835 14.8445C6.8521 13.8575 7.22583 12.6404 8.25125 12.305C8.7975 12.1325 9.46833 12.2762 9.84208 12.8033C10.1967 12.257 10.8963 12.1325 11.4329 12.305C12.4679 12.6404 12.8321 13.8575 12.5254 14.8445C12.0367 16.4066 10.3212 17.2212 9.84208 17.2212C9.3725 17.2116 7.67627 16.4162 7.16835 14.8445Z" stroke="#FFCA0D" stroke-width="1.5" stroke-linecap="round" stroke-linejoin="round"/>
</svg>
