<svg width="23" height="23" viewBox="0 0 23 23" fill="none" xmlns="http://www.w3.org/2000/svg">
<path d="M10.5417 1.91675H8.62499C3.83332 1.91675 1.91666 3.83341 1.91666 8.62508V14.3751C1.91666 19.1667 3.83332 21.0834 8.62499 21.0834H14.375C19.1667 21.0834 21.0833 19.1667 21.0833 14.3751V12.4584" stroke="#BDBDBD" stroke-width="1.5" stroke-linecap="round" stroke-linejoin="round"/>
<path d="M15.3717 2.89429L7.82001 10.446C7.53251 10.7335 7.24501 11.2989 7.18751 11.711L6.77542 14.5955C6.62209 15.6401 7.36001 16.3685 8.40459 16.2247L11.2892 15.8126C11.6917 15.7551 12.2571 15.4676 12.5542 15.1801L20.1058 7.62845C21.4092 6.32512 22.0225 4.81095 20.1058 2.89429C18.1892 0.97762 16.675 1.59095 15.3717 2.89429Z" stroke="#BDBDBD" stroke-width="1.5" stroke-miterlimit="10" stroke-linecap="round" stroke-linejoin="round"/>
<path d="M14.2888 3.97705C14.9308 6.26747 16.7229 8.05955 19.0229 8.71122" stroke="#BDBDBD" stroke-width="1.5" stroke-miterlimit="10" stroke-linecap="round" stroke-linejoin="round"/>
</svg>
