<svg width="23" height="23" viewBox="0 0 23 23" fill="none" xmlns="http://www.w3.org/2000/svg">
<path d="M11.5 14.2601C10.6279 14.2601 9.91876 13.5509 9.91876 12.6788V10.3117C9.91876 9.43966 10.6279 8.73047 11.5 8.73047C12.3721 8.73047 13.0813 9.43966 13.0813 10.3117V12.6788C13.0813 13.5509 12.3721 14.2601 11.5 14.2601Z" stroke="#FFCA0D" stroke-width="1.5" stroke-linecap="round"/>
<path d="M16.2725 12.9087C16.0808 15.3812 14.0108 17.317 11.5 17.317C8.85498 17.317 6.70831 15.1704 6.70831 12.5254V10.4745C6.70831 7.82953 8.85498 5.68286 11.5 5.68286C13.9821 5.68286 16.0233 7.57077 16.2629 9.98577" stroke="#FFCA0D" stroke-width="1.5" stroke-linecap="round"/>
<path d="M14.375 1.91675H16.2917C19.1667 1.91675 21.0833 3.83341 21.0833 6.70841V8.62508" stroke="#FFCA0D" stroke-width="1.5" stroke-miterlimit="10" stroke-linecap="round" stroke-linejoin="round"/>
<path d="M1.91669 8.62508V6.70841C1.91669 3.83341 3.83335 1.91675 6.70835 1.91675H8.62502" stroke="#FFCA0D" stroke-width="1.5" stroke-miterlimit="10" stroke-linecap="round" stroke-linejoin="round"/>
<path d="M14.375 21.0833H16.2917C19.1667 21.0833 21.0833 19.1667 21.0833 16.2917V14.375" stroke="#FFCA0D" stroke-width="1.5" stroke-miterlimit="10" stroke-linecap="round" stroke-linejoin="round"/>
<path d="M1.91669 14.375V16.2917C1.91669 19.1667 3.83335 21.0833 6.70835 21.0833H8.62502" stroke="#FFCA0D" stroke-width="1.5" stroke-miterlimit="10" stroke-linecap="round" stroke-linejoin="round"/>
</svg>
