<svg width="23" height="23" viewBox="0 0 23 23" fill="none" xmlns="http://www.w3.org/2000/svg">
<path d="M8.31834 12.19H9.98584V16.0712C9.98584 16.6462 10.695 16.9146 11.0783 16.4833L15.1608 11.845C15.5154 11.4425 15.2279 10.81 14.6913 10.81H13.0238V6.92874C13.0238 6.35374 12.3146 6.08541 11.9313 6.51666L7.84875 11.155C7.49417 11.5575 7.78167 12.19 8.31834 12.19Z" stroke="#336FEE" stroke-width="1.5" stroke-miterlimit="10" stroke-linecap="round" stroke-linejoin="round"/>
<path d="M11.4712 21.0834C16.764 21.0834 21.0546 16.7928 21.0546 11.5001C21.0546 6.20735 16.764 1.91675 11.4712 1.91675C6.17851 1.91675 1.88791 6.20735 1.88791 11.5001C1.88791 16.7928 6.17851 21.0834 11.4712 21.0834Z" stroke="#336FEE" stroke-width="1.5" stroke-miterlimit="10" stroke-linecap="round" stroke-linejoin="round"/>
</svg>
