<svg width="161" height="24" viewBox="0 0 161 24" fill="none" xmlns="http://www.w3.org/2000/svg">
<path d="M0.3125 15.0156H6.65625C6.65625 15.901 6.86979 16.5938 7.29688 17.0938C7.73438 17.5938 8.33333 17.8438 9.09375 17.8438C9.82292 17.8438 10.375 17.6146 10.75 17.1562C11.1354 16.6875 11.3281 16.0104 11.3281 15.125V0.453125H17.9531V15.1719C17.9531 17.7969 17.1823 19.8229 15.6406 21.25C14.099 22.6771 11.9479 23.3906 9.1875 23.3906C6.44792 23.3906 4.28125 22.6458 2.6875 21.1562C1.10417 19.6667 0.3125 17.6198 0.3125 15.0156ZM28.0625 0.453125V14.2344C28.0625 15.4219 28.3438 16.3333 28.9062 16.9688C29.4792 17.5938 30.3021 17.9062 31.375 17.9062C32.4479 17.9062 33.2656 17.5938 33.8281 16.9688C34.401 16.3333 34.6875 15.4219 34.6875 14.2344V0.453125H41.3125V14.9688C41.3125 17.5312 40.401 19.5781 38.5781 21.1094C36.7656 22.6302 34.3646 23.3906 31.375 23.3906C28.3854 23.3906 25.9792 22.6302 24.1562 21.1094C22.3438 19.5781 21.4375 17.5312 21.4375 14.9688V0.453125H28.0625ZM43.8125 16.3594H50.0781C50.1719 16.9844 50.5573 17.4948 51.2344 17.8906C51.9115 18.2865 52.7031 18.4844 53.6094 18.4844C54.5885 18.4844 55.3646 18.3073 55.9375 17.9531C56.5208 17.599 56.8125 17.1458 56.8125 16.5938C56.8125 16.0729 56.5781 15.6771 56.1094 15.4062C55.6406 15.125 54.7917 14.875 53.5625 14.6562L50.5781 14.125C48.5156 13.7708 46.9323 13.0208 45.8281 11.875C44.7344 10.7292 44.1875 9.27083 44.1875 7.5C44.1875 5.25 45.0521 3.44792 46.7812 2.09375C48.5104 0.739583 50.7396 0.0625 53.4688 0.0625C56.4375 0.0625 58.7396 0.697917 60.375 1.96875C62.0104 3.23958 62.8385 4.97917 62.8594 7.1875H56.8125C56.7917 6.5 56.4792 5.95833 55.875 5.5625C55.2708 5.15625 54.5104 4.95312 53.5938 4.95312C52.7292 4.95312 52.0417 5.11979 51.5312 5.45312C51.0208 5.78646 50.7656 6.23438 50.7656 6.79688C50.7656 7.32812 51.0052 7.75 51.4844 8.0625C51.9635 8.375 52.7448 8.625 53.8281 8.8125L56.9219 9.34375C59.1094 9.72917 60.724 10.4531 61.7656 11.5156C62.8177 12.5677 63.3438 14.0104 63.3438 15.8438C63.3438 18.1458 62.4479 19.9792 60.6562 21.3438C58.875 22.7083 56.4844 23.3906 53.4844 23.3906C50.4427 23.3906 48.0729 22.7812 46.375 21.5625C44.6771 20.3333 43.8229 18.599 43.8125 16.3594ZM77.5469 23H70.9219V5.71875H64.9844V0.453125H83.4844V5.71875H77.5469V23ZM85.75 0.453125H95.3906C98.8385 0.453125 101.51 1.41146 103.406 3.32812C105.302 5.23438 106.25 7.97917 106.25 11.5625C106.25 15.1667 105.292 17.974 103.375 19.9844C101.469 21.9948 98.8073 23 95.3906 23H85.75V0.453125ZM92.375 5.71875V17.7344H94.4531C97.8177 17.7344 99.5 15.6771 99.5 11.5625C99.5 9.67708 99.0573 8.23438 98.1719 7.23438C97.2969 6.22396 96.0573 5.71875 94.4531 5.71875H92.375ZM111.359 3.20312C113.401 1.10938 116.167 0.0625 119.656 0.0625C123.146 0.0625 125.911 1.10938 127.953 3.20312C129.995 5.29688 131.016 8.14062 131.016 11.7344C131.016 15.3281 129.995 18.1719 127.953 20.2656C125.911 22.349 123.146 23.3906 119.656 23.3906C116.156 23.3906 113.385 22.349 111.344 20.2656C109.312 18.1719 108.297 15.3281 108.297 11.7344C108.297 8.14062 109.318 5.29688 111.359 3.20312ZM123 7.07812C122.156 5.92188 121.042 5.34375 119.656 5.34375C118.271 5.34375 117.156 5.92188 116.312 7.07812C115.469 8.23438 115.047 9.78646 115.047 11.7344C115.047 13.6719 115.464 15.2188 116.297 16.375C117.141 17.5312 118.26 18.1094 119.656 18.1094C121.052 18.1094 122.167 17.5312 123 16.375C123.844 15.2188 124.266 13.6719 124.266 11.7344C124.266 9.78646 123.844 8.23438 123 7.07812ZM140.219 23H133.594V0.453125H140.219V23ZM155.047 23H148.422V5.71875H142.484V0.453125H160.984V5.71875H155.047V23Z" fill="#171716"/>
</svg>
