<svg width="23" height="23" viewBox="0 0 23 23" fill="none" xmlns="http://www.w3.org/2000/svg">
<path d="M19.1667 7.90633V17.2501C19.1667 20.1251 17.4512 21.0834 15.3333 21.0834H7.66667C5.54875 21.0834 3.83333 20.1251 3.83333 17.2501V7.90633C3.83333 4.79175 5.54875 4.073 7.66667 4.073C7.66667 4.66716 7.90622 5.20383 8.29914 5.59674C8.69206 5.98966 9.22875 6.22925 9.82292 6.22925H13.1771C14.3654 6.22925 15.3333 5.26133 15.3333 4.073C17.4512 4.073 19.1667 4.79175 19.1667 7.90633Z" stroke="#FFCA0D" stroke-width="1.5" stroke-linecap="round" stroke-linejoin="round"/>
<path d="M15.3333 4.073C15.3333 5.26133 14.3654 6.22925 13.1771 6.22925H9.82292C9.22875 6.22925 8.69206 5.98966 8.29914 5.59674C7.90622 5.20383 7.66667 4.66716 7.66667 4.073C7.66667 2.88466 8.63458 1.91675 9.82292 1.91675H13.1771C13.7712 1.91675 14.3079 2.15633 14.7009 2.54925C15.0938 2.94217 15.3333 3.47883 15.3333 4.073Z" stroke="#FFCA0D" stroke-width="1.5" stroke-linecap="round" stroke-linejoin="round"/>
<path d="M7.66667 12.4583H11.5" stroke="#FFCA0D" stroke-width="1.5" stroke-linecap="round" stroke-linejoin="round"/>
<path d="M7.66667 16.2917H15.3333" stroke="#FFCA0D" stroke-width="1.5" stroke-linecap="round" stroke-linejoin="round"/>
</svg>
