<svg width="35" height="35" viewBox="0 0 35 35" fill="none" xmlns="http://www.w3.org/2000/svg">
<circle cx="17.5" cy="17.5" r="17" stroke="#D5D5D5"/>
<path d="M15.5555 21.3889V22.1667C15.5555 23.4553 16.6002 24.1111 17.8889 24.1111C19.1775 24.1111 20.2222 23.4553 20.2222 22.1667V21.3889M13.2222 14.3889C13.2222 11.8116 15.3115 10.5 17.8889 10.5C20.4662 10.5 22.5555 11.8116 22.5555 14.3889C22.5555 15.8971 23.1039 17.5881 23.669 18.9303C24.1382 20.0447 23.3506 21.3889 22.1415 21.3889H13.6363C12.4271 21.3889 11.6396 20.0447 12.1088 18.9303C12.6738 17.5881 13.2222 15.8971 13.2222 14.3889Z" stroke="#7B7B7B" stroke-linecap="round" stroke-linejoin="round"/>
</svg>
