<svg width="23" height="23" viewBox="0 0 23 23" fill="none" xmlns="http://www.w3.org/2000/svg">
<path d="M10.5608 18.6875H7.18751C6.59334 18.6875 6.06626 18.6683 5.59668 18.6012C3.07626 18.3233 2.39584 17.135 2.39584 13.8958V9.10417C2.39584 5.865 3.07626 4.67667 5.59668 4.39875C6.06626 4.33167 6.59334 4.3125 7.18751 4.3125H10.5033" stroke="#FFD70A" stroke-width="1.5" stroke-linecap="round" stroke-linejoin="round"/>
<path d="M14.3942 4.3125H15.8125C16.4067 4.3125 16.9337 4.33167 17.4033 4.39875C19.9237 4.67667 20.6042 5.865 20.6042 9.10417V13.8958C20.6042 17.135 19.9237 18.3233 17.4033 18.6012C16.9337 18.6683 16.4067 18.6875 15.8125 18.6875H14.3942" stroke="#FFD70A" stroke-width="1.5" stroke-linecap="round" stroke-linejoin="round"/>
<path d="M14.375 1.91675V21.0834" stroke="#FFD70A" stroke-width="1.5" stroke-linecap="round" stroke-linejoin="round"/>
<path d="M10.6322 11.4999H10.6408" stroke="#FFD70A" stroke-width="2" stroke-linecap="round" stroke-linejoin="round"/>
<path d="M6.79888 11.4999H6.80749" stroke="#FFD70A" stroke-width="2" stroke-linecap="round" stroke-linejoin="round"/>
</svg>
