<svg width="23" height="23" viewBox="0 0 23 23" fill="none" xmlns="http://www.w3.org/2000/svg">
<path d="M8.625 21.0834H14.375C19.1667 21.0834 21.0833 19.1667 21.0833 14.3751V8.62508C21.0833 3.83341 19.1667 1.91675 14.375 1.91675H8.625C3.83333 1.91675 1.91666 3.83341 1.91666 8.62508V14.3751C1.91666 19.1667 3.83333 21.0834 8.625 21.0834Z" stroke="#BDBDBD" stroke-width="1.5" stroke-linecap="round" stroke-linejoin="round"/>
<path d="M16.2917 11.3467H13.7233C13.0429 11.3467 12.5829 10.8292 12.5829 10.2063V8.77836C12.5829 8.15544 13.0429 7.63794 13.7233 7.63794H15.1512C15.7742 7.63794 16.2917 8.15544 16.2917 8.77836V11.3467Z" stroke="#BDBDBD" stroke-width="1.5" stroke-linecap="round" stroke-linejoin="round"/>
<path d="M16.2917 11.3467C16.2917 14.0204 15.7933 14.4708 14.2887 15.3621" stroke="#BDBDBD" stroke-width="1.5" stroke-linecap="round" stroke-linejoin="round"/>
<path d="M10.4075 11.3467H7.83917C7.15875 11.3467 6.69875 10.8292 6.69875 10.2063V8.77836C6.69875 8.15544 7.15875 7.63794 7.83917 7.63794H9.26708C9.89 7.63794 10.4075 8.15544 10.4075 8.77836V11.3467Z" stroke="#BDBDBD" stroke-width="1.5" stroke-linecap="round" stroke-linejoin="round"/>
<path d="M10.4075 11.3467C10.4075 14.0204 9.90917 14.4708 8.40459 15.3621" stroke="#BDBDBD" stroke-width="1.5" stroke-linecap="round" stroke-linejoin="round"/>
</svg>
