<svg width="24" height="24" viewBox="0 0 24 24" fill="none" xmlns="http://www.w3.org/2000/svg">
<g clip-path="url(#clip0_157_5660)">
<path d="M0.486562 4.70725C0.826875 4.33975 1.32562 4.13069 1.82625 4.13819C8.57578 4.13678 15.3258 4.13819 22.0753 4.13725C22.3978 4.12928 22.7278 4.18178 23.0156 4.33366C23.6034 4.62334 23.9944 5.25663 24 5.911V9.37506C15.9998 9.37741 8.00016 9.37085 0 9.37835V5.8646C0.0201562 5.4371 0.191719 5.01803 0.486562 4.70725Z" fill="#F0F0F0"/>
<path d="M0 9.37823C8.00016 9.37073 15.9998 9.37729 24 9.37495V14.625C15.9998 14.6245 8.00016 14.625 0 14.625V9.37823Z" fill="#41479B"/>
<path d="M0 14.625C8.00016 14.625 15.9998 14.6245 24 14.625V18.1359C23.9775 18.5742 23.7989 19.0045 23.4891 19.3176C23.1497 19.672 22.6603 19.8689 22.1705 19.8618C15.4373 19.8632 8.70422 19.8618 1.97109 19.8628C1.66734 19.8712 1.35797 19.8365 1.07906 19.7109C0.470156 19.4526 0.0440625 18.8367 0 18.1786V14.625Z" fill="#FF4B55"/>
</g>
<defs>
<clipPath id="clip0_157_5660">
<rect width="24" height="24" fill="white"/>
</clipPath>
</defs>
</svg>
