<svg width="18" height="18" viewBox="0 0 18 18" fill="none" xmlns="http://www.w3.org/2000/svg">
<path d="M7.86749 1.67242L4.12499 3.07492C3.26249 3.39742 2.5575 4.41741 2.5575 5.33991V10.9124C2.5575 11.7974 3.1425 12.9599 3.855 13.4924L7.07999 15.8999C8.13749 16.6949 9.87748 16.6949 10.935 15.8999L14.16 13.4924C14.8725 12.9599 15.4575 11.7974 15.4575 10.9124V5.33991C15.4575 4.41741 14.7525 3.39742 13.89 3.07492L10.1475 1.67242C9.50999 1.43992 8.48999 1.43992 7.86749 1.67242Z" stroke="#BDBDBD" stroke-linecap="round" stroke-linejoin="round"/>
<path d="M9.00002 8.19006C8.97002 8.19006 8.93251 8.19006 8.90251 8.19006C8.19751 8.16756 7.63501 7.58256 7.63501 6.87006C7.63501 6.14256 8.22752 5.55005 8.95502 5.55005C9.68252 5.55005 10.275 6.14256 10.275 6.87006C10.2675 7.59006 9.70502 8.16756 9.00002 8.19006Z" stroke="#BDBDBD" stroke-linecap="round" stroke-linejoin="round"/>
<path d="M7.50753 10.29C6.78753 10.77 6.78753 11.5575 7.50753 12.0375C8.32503 12.585 9.66753 12.585 10.485 12.0375C11.205 11.5575 11.205 10.77 10.485 10.29C9.67503 9.74252 8.33253 9.74252 7.50753 10.29Z" stroke="#BDBDBD" stroke-linecap="round" stroke-linejoin="round"/>
</svg>
