<svg width="23" height="23" viewBox="0 0 23 23" fill="none" xmlns="http://www.w3.org/2000/svg">
<path d="M21.0834 10.0626V14.8542C21.0834 18.2084 19.1667 19.6459 16.2917 19.6459H6.70835C3.83335 19.6459 1.91669 18.2084 1.91669 14.8542V8.14591C1.91669 4.79175 3.83335 3.35425 6.70835 3.35425H13.4167" stroke="#FFCA0D" stroke-width="1.5" stroke-miterlimit="10" stroke-linecap="round" stroke-linejoin="round"/>
<path d="M6.70831 8.625L9.7079 11.0208C10.695 11.8067 12.3146 11.8067 13.3017 11.0208L14.4325 10.12" stroke="#FFCA0D" stroke-width="1.5" stroke-miterlimit="10" stroke-linecap="round" stroke-linejoin="round"/>
<path d="M18.6875 7.66667C20.0107 7.66667 21.0834 6.59402 21.0834 5.27083C21.0834 3.94765 20.0107 2.875 18.6875 2.875C17.3643 2.875 16.2917 3.94765 16.2917 5.27083C16.2917 6.59402 17.3643 7.66667 18.6875 7.66667Z" stroke="#FFCA0D" stroke-width="1.5" stroke-miterlimit="10" stroke-linecap="round" stroke-linejoin="round"/>
</svg>
