<svg width="23" height="23" viewBox="0 0 23 23" fill="none" xmlns="http://www.w3.org/2000/svg">
<path d="M19.1667 7.90633V17.2501C19.1667 20.1251 17.4513 21.0834 15.3334 21.0834H7.66671C5.54879 21.0834 3.83337 20.1251 3.83337 17.2501V7.90633C3.83337 4.79175 5.54879 4.073 7.66671 4.073C7.66671 4.66716 7.90626 5.20383 8.29918 5.59674C8.6921 5.98966 9.22879 6.22925 9.82296 6.22925H13.1771C14.3655 6.22925 15.3334 5.26133 15.3334 4.073C17.4513 4.073 19.1667 4.79175 19.1667 7.90633Z" stroke="#FFCA0D" stroke-width="1.5" stroke-linecap="round" stroke-linejoin="round"/>
<path d="M15.3333 4.073C15.3333 5.26133 14.3654 6.22925 13.177 6.22925H9.82288C9.22871 6.22925 8.69202 5.98966 8.2991 5.59674C7.90618 5.20383 7.66663 4.66716 7.66663 4.073C7.66663 2.88466 8.63454 1.91675 9.82288 1.91675H13.177C13.7712 1.91675 14.3079 2.15633 14.7008 2.54925C15.0937 2.94217 15.3333 3.47883 15.3333 4.073Z" stroke="#FFCA0D" stroke-width="1.5" stroke-linecap="round" stroke-linejoin="round"/>
<path d="M7.66663 12.4583H11.5" stroke="#FFCA0D" stroke-width="1.5" stroke-linecap="round" stroke-linejoin="round"/>
<path d="M7.66663 16.2917H15.3333" stroke="#FFCA0D" stroke-width="1.5" stroke-linecap="round" stroke-linejoin="round"/>
</svg>
