<svg width="16" height="16" viewBox="0 0 16 16" fill="none" xmlns="http://www.w3.org/2000/svg">
<path d="M12.7067 12.4467L11.28 9.6001L9.85333 12.4467" stroke="#336FEE" stroke-linecap="round" stroke-linejoin="round"/>
<path d="M10.1133 11.9399H12.46" stroke="#336FEE" stroke-linecap="round" stroke-linejoin="round"/>
<path d="M11.28 14.6669C9.41334 14.6669 7.89334 13.1535 7.89334 11.2802C7.89334 9.41353 9.40668 7.89355 11.28 7.89355C13.1467 7.89355 14.6667 9.40686 14.6667 11.2802C14.6667 13.1535 13.1533 14.6669 11.28 14.6669Z" stroke="#336FEE" stroke-linecap="round" stroke-linejoin="round"/>
<path d="M3.34668 1.3335H5.96001C7.34001 1.3335 8.00668 2.00018 7.97335 3.34684V5.96016C8.00668 7.34016 7.34001 8.00684 5.96001 7.97351H3.34668C2.00001 8.00018 1.33334 7.33349 1.33334 5.95349V3.34017C1.33334 2.00017 2.00001 1.3335 3.34668 1.3335Z" stroke="#336FEE" stroke-linecap="round" stroke-linejoin="round"/>
<path d="M6.00665 3.8999H3.29999" stroke="#336FEE" stroke-linecap="round" stroke-linejoin="round"/>
<path d="M4.64667 3.44678V3.90011" stroke="#336FEE" stroke-linecap="round" stroke-linejoin="round"/>
<path d="M5.32667 3.89355C5.32667 5.06022 4.41333 6.00688 3.29333 6.00688" stroke="#336FEE" stroke-linecap="round" stroke-linejoin="round"/>
<path d="M6.00667 6.00684C5.52001 6.00684 5.08001 5.74683 4.77335 5.3335" stroke="#336FEE" stroke-linecap="round" stroke-linejoin="round"/>
<path d="M1.33334 10C1.33334 12.58 3.42001 14.6667 6.00001 14.6667L5.30001 13.5" stroke="#336FEE" stroke-linecap="round" stroke-linejoin="round"/>
<path d="M14.6667 6.00016C14.6667 3.42016 12.58 1.3335 10 1.3335L10.7 2.50016" stroke="#336FEE" stroke-linecap="round" stroke-linejoin="round"/>
</svg>
