<svg width="23" height="23" viewBox="0 0 23 23" fill="none" xmlns="http://www.w3.org/2000/svg">
<path d="M17.3842 20.7192C16.5408 20.9684 15.5442 21.0834 14.375 21.0834H8.62501C7.45584 21.0834 6.45918 20.9684 5.61584 20.7192C5.82668 18.2275 8.38543 16.2629 11.5 16.2629C14.6146 16.2629 17.1733 18.2275 17.3842 20.7192Z" stroke="#FFD70A" stroke-width="1.5" stroke-linecap="round" stroke-linejoin="round"/>
<path d="M14.375 1.91675H8.62502C3.83335 1.91675 1.91669 3.83341 1.91669 8.62508V14.3751C1.91669 17.9976 3.00919 19.9813 5.61585 20.7192C5.82669 18.2276 8.38544 16.263 11.5 16.263C14.6146 16.263 17.1734 18.2276 17.3842 20.7192C19.9909 19.9813 21.0834 17.9976 21.0834 14.3751V8.62508C21.0834 3.83341 19.1667 1.91675 14.375 1.91675ZM11.5 13.5796C9.60252 13.5796 8.06919 12.0368 8.06919 10.1393C8.06919 8.24176 9.60252 6.70841 11.5 6.70841C13.3975 6.70841 14.9309 8.24176 14.9309 10.1393C14.9309 12.0368 13.3975 13.5796 11.5 13.5796Z" stroke="#FFD70A" stroke-width="1.5" stroke-linecap="round" stroke-linejoin="round"/>
<path d="M14.9308 10.1391C14.9308 12.0366 13.3975 13.5795 11.5 13.5795C9.60249 13.5795 8.06915 12.0366 8.06915 10.1391C8.06915 8.2416 9.60249 6.70825 11.5 6.70825C13.3975 6.70825 14.9308 8.2416 14.9308 10.1391Z" stroke="#FFD70A" stroke-width="1.5" stroke-linecap="round" stroke-linejoin="round"/>
</svg>
