<svg width="23" height="23" viewBox="0 0 23 23" fill="none" xmlns="http://www.w3.org/2000/svg">
<path d="M8.03082 11.5001L10.3404 13.8192L14.9692 9.18091" stroke="#A401C4" stroke-width="1.5" stroke-linecap="round" stroke-linejoin="round"/>
<path d="M10.3021 2.34789C10.9633 1.78247 12.0462 1.78247 12.7171 2.34789L14.2312 3.65122C14.5187 3.90039 15.0554 4.10164 15.4387 4.10164H17.0679C18.0837 4.10164 18.9175 4.93539 18.9175 5.95122V7.58039C18.9175 7.95414 19.1187 8.50039 19.3679 8.78789L20.6712 10.3021C21.2367 10.9633 21.2367 12.0462 20.6712 12.7171L19.3679 14.2312C19.1187 14.5187 18.9175 15.0554 18.9175 15.4387V17.0679C18.9175 18.0837 18.0837 18.9175 17.0679 18.9175H15.4387C15.065 18.9175 14.5187 19.1187 14.2312 19.3679L12.7171 20.6712C12.0558 21.2366 10.9729 21.2366 10.3021 20.6712L8.78791 19.3679C8.50041 19.1187 7.96374 18.9175 7.58041 18.9175H5.92249C4.90666 18.9175 4.07291 18.0837 4.07291 17.0679V15.4291C4.07291 15.0554 3.87166 14.5187 3.63207 14.2312L2.33832 12.7075C1.78249 12.0462 1.78249 10.9729 2.33832 10.3116L3.63207 8.78789C3.87166 8.50039 4.07291 7.96372 4.07291 7.58997V5.94164C4.07291 4.92581 4.90666 4.09206 5.92249 4.09206H7.58041C7.95416 4.09206 8.50041 3.89081 8.78791 3.64164L10.3021 2.34789Z" stroke="#A401C4" stroke-width="1.5" stroke-linecap="round" stroke-linejoin="round"/>
</svg>
