<svg width="23" height="23" viewBox="0 0 23 23" fill="none" xmlns="http://www.w3.org/2000/svg">
<path d="M10.3036 16.1578V18.1033C10.3036 19.7516 8.77024 21.0837 6.88233 21.0837C4.99441 21.0837 3.45148 19.7516 3.45148 18.1033V16.1578C3.45148 17.8062 4.98483 18.9753 6.88233 18.9753C8.77024 18.9753 10.3036 17.7966 10.3036 16.1578Z" stroke="#BDBDBD" stroke-width="1.5" stroke-linecap="round" stroke-linejoin="round"/>
<path d="M10.3021 13.5221C10.3021 14.0012 10.1679 14.4421 9.9379 14.8254C9.37248 15.755 8.21289 16.3396 6.87122 16.3396C5.52955 16.3396 4.36996 15.7454 3.80454 14.8254C3.57454 14.4421 3.44043 14.0012 3.44043 13.5221C3.44043 12.6979 3.82374 11.96 4.43708 11.4233C5.05999 10.8771 5.91288 10.5513 6.86163 10.5513C7.81038 10.5513 8.66332 10.8866 9.28624 11.4233C9.91874 11.9504 10.3021 12.6979 10.3021 13.5221Z" stroke="#BDBDBD" stroke-width="1.5" stroke-linecap="round" stroke-linejoin="round"/>
<path d="M10.3036 13.5221V16.1575C10.3036 17.8058 8.77024 18.975 6.88233 18.975C4.99441 18.975 3.45148 17.7962 3.45148 16.1575V13.5221C3.45148 11.8737 4.98483 10.5417 6.88233 10.5417C7.83108 10.5417 8.68402 10.8771 9.30694 11.4137C9.92027 11.9504 10.3036 12.6979 10.3036 13.5221Z" stroke="#BDBDBD" stroke-width="1.5" stroke-linecap="round" stroke-linejoin="round"/>
<path d="M21.0834 10.5129V12.4871C21.0834 13.0142 20.6617 13.4454 20.125 13.4646H18.2467C17.2117 13.4646 16.263 12.7075 16.1767 11.6725C16.1192 11.0687 16.3492 10.5033 16.7517 10.1104C17.1063 9.74624 17.595 9.53543 18.1317 9.53543H20.125C20.6617 9.55459 21.0834 9.9858 21.0834 10.5129Z" stroke="#BDBDBD" stroke-width="1.5" stroke-linecap="round" stroke-linejoin="round"/>
<path d="M1.91669 10.0625V8.14583C1.91669 5.53917 3.48836 3.71833 5.93211 3.41167C6.18127 3.37333 6.44002 3.35417 6.70835 3.35417H15.3334C15.5825 3.35417 15.8221 3.36374 16.0521 3.40207C18.5246 3.68957 20.125 5.52 20.125 8.14583V9.53543H18.1317C17.595 9.53543 17.1063 9.74624 16.7517 10.1104C16.3492 10.5033 16.1192 11.0687 16.1767 11.6725C16.2629 12.7075 17.2117 13.4646 18.2467 13.4646H20.125V14.8542C20.125 17.7292 18.2084 19.6458 15.3334 19.6458H12.9375" stroke="#BDBDBD" stroke-width="1.5" stroke-linecap="round" stroke-linejoin="round"/>
</svg>
