<svg width="18" height="18" viewBox="0 0 18 18" fill="none" xmlns="http://www.w3.org/2000/svg">
<path fill-rule="evenodd" clip-rule="evenodd" d="M0 17.9558C0.487536 16.3817 1.05262 14.8852 1.56924 13.3404C-1.85533 7.3509 2.38275 0.608208 8.12305 0.0481087C13.5428 -0.480786 17.9865 3.41212 18 8.72498C18.0141 14.3309 12.5772 19.0382 6.46149 17.1249C6.00018 16.9806 5.42937 16.5103 4.89226 16.4788C4.14161 16.4345 3.15786 16.9735 2.39992 17.2172C1.56914 17.4845 0.846749 17.7523 0 17.9558ZM5.07689 14.8173C10.0155 17.8145 15.9291 14.4527 16.4307 9.55576C16.8848 5.12269 13.3451 1.17828 8.58455 1.52503C3.14974 1.9208 -0.114844 8.40823 3.2307 13.1557C2.93454 13.9673 2.6574 14.7979 2.39992 15.6481C3.30668 15.3855 4.14253 15.0521 5.07689 14.8173Z" fill="#46C956"/>
<path fill-rule="evenodd" clip-rule="evenodd" d="M7.0154 4.57138C7.53488 5.65798 8.33843 7.26516 7.0154 7.98682C7.6873 9.40723 8.79817 10.3887 10.2461 11.033C10.7276 10.7145 11.0438 10.2306 11.4462 9.83301C12.2866 10.1618 13.0723 10.5452 13.7538 11.033C13.8238 12.6209 12.4857 13.2082 11.3538 13.156C8.96601 13.0462 5.68417 10.0295 4.89235 7.80218C4.42244 6.48063 4.96288 3.95294 7.0154 4.57138Z" fill="#46C956"/>
</svg>
